REM DIRINDEX 1\2\6,1\2\7,1\2\8,1\2\9,1\3\10,1\3\11,1\4\12,1\4\13,1\4\14,1\5\15,1\5\16,1\5\17
REM DIRNAME cjc020,folder01,folder02,folder03,folder04,folder05,folder06,folder07,folder08,folder09,folder10,folder11,folder12,folder13,folder14,folder15,folder16
TITLE ""
FILE "1900_3_095 sec16_1577_1600.mp3" MP3
  TRACK 01 AUDIO
    TITLE "0:"
    INDEX 01 00:00:00
  TRACK 02 AUDIO
    TITLE "17:cjc020_9137"
    INDEX 01 00:00:13
  TRACK 03 AUDIO
    TITLE "0:"
    INDEX 01 00:02:43
  TRACK 04 AUDIO
    TITLE "16:cjc020_9138"
    INDEX 01 00:02:47
  TRACK 05 AUDIO
    TITLE "0:"
    INDEX 01 00:03:53
  TRACK 06 AUDIO
    TITLE "17:cjc020_9139"
    INDEX 01 00:04:38
  TRACK 07 AUDIO
    TITLE "0:"
    INDEX 01 00:06:63
  TRACK 08 AUDIO
    TITLE "16:cjc020_9140"
    INDEX 01 00:06:69
  TRACK 09 AUDIO
    TITLE "0:"
    INDEX 01 00:07:60
  TRACK 10 AUDIO
    TITLE "17:cjc020_9141"
    INDEX 01 00:08:62
  TRACK 11 AUDIO
    TITLE "0:"
    INDEX 01 00:10:02
  TRACK 12 AUDIO
    TITLE "16:cjc020_9142"
    INDEX 01 00:10:06
  TRACK 13 AUDIO
    TITLE "0:"
    INDEX 01 00:11:05
  TRACK 14 AUDIO
    TITLE "17:cjc020_9143"
    INDEX 01 00:11:64
  TRACK 15 AUDIO
    TITLE "0:"
    INDEX 01 00:13:30
  TRACK 16 AUDIO
    TITLE "16:cjc020_9144"
    INDEX 01 00:13:35
  TRACK 17 AUDIO
    TITLE "0:"
    INDEX 01 00:14:43
  TRACK 18 AUDIO
    TITLE "17:cjc020_9145"
    INDEX 01 00:15:25
  TRACK 19 AUDIO
    TITLE "0:"
    INDEX 01 00:16:36
  TRACK 20 AUDIO
    TITLE "16:cjc020_9146"
    INDEX 01 00:16:40
  TRACK 21 AUDIO
    TITLE "0:"
    INDEX 01 00:17:41
  TRACK 22 AUDIO
    TITLE "17:cjc020_9147"
    INDEX 01 00:18:25
  TRACK 23 AUDIO
    TITLE "0:"
    INDEX 01 00:19:48
  TRACK 24 AUDIO
    TITLE "16:cjc020_9148"
    INDEX 01 00:19:50
  TRACK 25 AUDIO
    TITLE "0:"
    INDEX 01 00:20:63
  TRACK 26 AUDIO
    TITLE "17:cjc020_9149"
    INDEX 01 00:21:47
  TRACK 27 AUDIO
    TITLE "0:"
    INDEX 01 00:23:08
  TRACK 28 AUDIO
    TITLE "16:cjc020_9150"
    INDEX 01 00:23:14
  TRACK 29 AUDIO
    TITLE "0:"
    INDEX 01 00:24:33
  TRACK 30 AUDIO
    TITLE "17:cjc020_9151"
    INDEX 01 00:25:17
  TRACK 31 AUDIO
    TITLE "0:"
    INDEX 01 00:26:36
  TRACK 32 AUDIO
    TITLE "16:cjc020_9152"
    INDEX 01 00:26:38
  TRACK 33 AUDIO
    TITLE "0:"
    INDEX 01 00:27:53
  TRACK 34 AUDIO
    TITLE "17:cjc020_9153"
    INDEX 01 00:28:33
  TRACK 35 AUDIO
    TITLE "0:"
    INDEX 01 00:29:70
  TRACK 36 AUDIO
    TITLE "16:cjc020_9154"
    INDEX 01 00:29:74
  TRACK 37 AUDIO
    TITLE "0:"
    INDEX 01 00:31:10
  TRACK 38 AUDIO
    TITLE "17:cjc020_9155"
    INDEX 01 00:31:69
  TRACK 39 AUDIO
    TITLE "0:"
    INDEX 01 00:33:05
  TRACK 40 AUDIO
    TITLE "16:cjc020_9156"
    INDEX 01 00:33:11
  TRACK 41 AUDIO
    TITLE "0:"
    INDEX 01 00:34:34
  TRACK 42 AUDIO
    TITLE "17:cjc020_9157"
    INDEX 01 00:35:12
  TRACK 43 AUDIO
    TITLE "0:"
    INDEX 01 00:36:19
  TRACK 44 AUDIO
    TITLE "16:cjc020_9158"
    INDEX 01 00:36:23
  TRACK 45 AUDIO
    TITLE "0:"
    INDEX 01 00:37:42
  TRACK 46 AUDIO
    TITLE "17:cjc020_9159"
    INDEX 01 00:38:26
  TRACK 47 AUDIO
    TITLE "0:"
    INDEX 01 00:39:37
  TRACK 48 AUDIO
    TITLE "16:cjc020_9160"
    INDEX 01 00:39:39
  TRACK 49 AUDIO
    TITLE "0:"
    INDEX 01 00:40:56
  TRACK 50 AUDIO
    TITLE "17:cjc020_9161"
    INDEX 01 00:41:40
  TRACK 51 AUDIO
    TITLE "0:"
    INDEX 01 00:42:57
  TRACK 52 AUDIO
    TITLE "16:cjc020_9162"
    INDEX 01 00:42:63
  TRACK 53 AUDIO
    TITLE "0:"
    INDEX 01 00:43:70
  TRACK 54 AUDIO
    TITLE "17:cjc020_9163"
    INDEX 01 00:44:52
  TRACK 55 AUDIO
    TITLE "0:"
    INDEX 01 00:46:02
  TRACK 56 AUDIO
    TITLE "16:cjc020_9164"
    INDEX 01 00:46:07
  TRACK 57 AUDIO
    TITLE "0:"
    INDEX 01 00:47:17
  TRACK 58 AUDIO
    TITLE "17:cjc020_9165"
    INDEX 01 00:47:74
  TRACK 59 AUDIO
    TITLE "0:"
    INDEX 01 00:49:37
  TRACK 60 AUDIO
    TITLE "16:cjc020_9166"
    INDEX 01 00:49:41
  TRACK 61 AUDIO
    TITLE "0:"
    INDEX 01 00:50:68
  TRACK 62 AUDIO
    TITLE "17:cjc020_9167"
    INDEX 01 00:51:50
  TRACK 63 AUDIO
    TITLE "0:"
    INDEX 01 00:52:69
  TRACK 64 AUDIO
    TITLE "16:cjc020_9168"
    INDEX 01 00:52:71
  TRACK 65 AUDIO
    TITLE "0:"
    INDEX 01 00:54:17
  TRACK 66 AUDIO
    TITLE "17:cjc020_9169"
    INDEX 01 00:54:70
  TRACK 67 AUDIO
    TITLE "0:"
    INDEX 01 00:56:16
  TRACK 68 AUDIO
    TITLE "16:cjc020_9170"
    INDEX 01 00:56:25
  TRACK 69 AUDIO
    TITLE "0:"
    INDEX 01 00:57:39
  TRACK 70 AUDIO
    TITLE "17:cjc020_9171"
    INDEX 01 00:58:24
  TRACK 71 AUDIO
    TITLE "0:"
    INDEX 01 00:59:30
  TRACK 72 AUDIO
    TITLE "16:cjc020_9172"
    INDEX 01 00:59:36
  TRACK 73 AUDIO
    TITLE "0:"
    INDEX 01 01:00:45
  TRACK 74 AUDIO
    TITLE "17:cjc020_9173"
    INDEX 01 01:01:29
  TRACK 75 AUDIO
    TITLE "0:"
    INDEX 01 01:03:00
  TRACK 76 AUDIO
    TITLE "16:cjc020_9174"
    INDEX 01 01:03:04
  TRACK 77 AUDIO
    TITLE "0:"
    INDEX 01 01:04:29
  TRACK 78 AUDIO
    TITLE "17:cjc020_9175"
    INDEX 01 01:05:15
  TRACK 79 AUDIO
    TITLE "0:"
    INDEX 01 01:06:32
  TRACK 80 AUDIO
    TITLE "16:cjc020_9176"
    INDEX 01 01:06:36
  TRACK 81 AUDIO
    TITLE "0:"
    INDEX 01 01:07:53
  TRACK 82 AUDIO
    TITLE "17:cjc020_9177"
    INDEX 01 01:08:38
  TRACK 83 AUDIO
    TITLE "0:"
    INDEX 01 01:09:56
  TRACK 84 AUDIO
    TITLE "16:cjc020_9178"
    INDEX 01 01:09:63
  TRACK 85 AUDIO
    TITLE "0:"
    INDEX 01 01:10:67
  TRACK 86 AUDIO
    TITLE "17:cjc020_9179"
    INDEX 01 01:11:52
  TRACK 87 AUDIO
    TITLE "0:"
    INDEX 01 01:14:08
  TRACK 88 AUDIO
    TITLE "16:cjc020_9180"
    INDEX 01 01:14:16
  TRACK 89 AUDIO
    TITLE "0:"
    INDEX 01 01:15:21
  TRACK 90 AUDIO
    TITLE "17:cjc020_9181"
    INDEX 01 01:16:07
  TRACK 91 AUDIO
    TITLE "0:"
    INDEX 01 01:18:49
  TRACK 92 AUDIO
    TITLE "16:cjc020_9182"
    INDEX 01 01:18:54
  TRACK 93 AUDIO
    TITLE "0:"
    INDEX 01 01:20:02
  TRACK 94 AUDIO
    TITLE "17:cjc020_9183"
    INDEX 01 01:20:61
  TRACK 95 AUDIO
    TITLE "0:"
    INDEX 01 01:23:11
  TRACK 96 AUDIO
    TITLE "16:cjc020_9184"
    INDEX 01 01:23:24
  TRACK 97 AUDIO
    TITLE "0:"
    INDEX 01 01:24:32
